<svg xmlns="http://www.w3.org/2000/svg" width="1438.465" height="594.21" viewBox="0 0 1438.465 594.21">
  <g id="X_bg" transform="translate(2922.434 947.224) rotate(30)">
    <path id="x" d="M448.118,0,282.7,165.418,117.276,0,0,117.277,165.414,282.7,0,448.118,117.276,565.394,282.7,399.98,448.118,565.394,565.394,448.118,399.978,282.7,565.394,117.277Z" transform="matrix(0.545, 0.839, -0.839, 0.545, -2515.539, 358.587)" fill="#ef0"/>
    <path id="x-2" data-name="x" d="M184.923,0,116.661,68.262,48.4,0,0,48.4l68.261,68.266L0,184.923l48.4,48.4,68.265-68.261,68.262,68.261,48.4-48.4-68.261-68.26L233.319,48.4Z" transform="translate(-1622.565 157.574) rotate(90)" fill="#ef0"/>
    <path id="x-3" data-name="x" d="M50.089,0,31.6,18.49,13.109,0,0,13.109,18.489,31.6,0,50.089,13.109,63.2,31.6,44.708,50.089,63.2,63.2,50.089,44.708,31.6,63.2,13.109Z" transform="matrix(-0.966, 0.259, -0.259, -0.966, -1973.753, 218.015)" fill="#ef0"/>
  </g>
</svg>
